<svg xmlns="http://www.w3.org/2000/svg" width="269" height="409" viewBox="0 0 269 409"><defs><clipPath id="roasa"><path d="M5 0h258.937a5 5 0 0 1 5 5v399a5 5 0 0 1-5 5H5a5 5 0 0 1-5-5V5a5 5 0 0 1 5-5z"/></clipPath></defs><g><g><path fill="#44444f" d="M5 0h258.937a5 5 0 0 1 5 5v399a5 5 0 0 1-5 5H5a5 5 0 0 1-5-5V5a5 5 0 0 1 5-5z"/></g><g clip-path="url(#roasa)"><path fill="#65e496" d="M249.672 294.17l105.655-61a5 5 0 1 1 5 8.66l-105.655 61a5 5 0 1 1-5-8.66z"/></g><g clip-path="url(#roasa)"><path fill="#65e496" d="M249.672 267.17l105.655-61a5 5 0 1 1 5 8.66l-105.655 61a5 5 0 1 1-5-8.66z"/></g></g></svg>