<?xml version="1.0" encoding="utf-8"?>
<!-- Generator: Adobe Illustrator 23.1.0, SVG Export Plug-In . SVG Version: 6.00 Build 0)  -->
<svg version="1.1" id="Слой_1" xmlns="http://www.w3.org/2000/svg" xmlns:xlink="http://www.w3.org/1999/xlink" x="0px" y="0px"
	 viewBox="0 0 137 28" style="enable-background:new 0 0 137 28;" xml:space="preserve">
<style type="text/css">
	.st0{enable-background:new    ;}
	.st1{fill:#FEFEFE;}
	.st2{fill:#65E496;}
</style>
<g>
	<g>
		<g>
			<g class="st0">
				<path class="st1" d="M34.4,2.4h8c1.6,0,2.8,0.1,3.5,0.2s1.5,0.4,2.1,0.8s1.1,1,1.5,1.7s0.6,1.5,0.6,2.3c0,0.9-0.3,1.8-0.8,2.6
					s-1.2,1.4-2.1,1.8c1.2,0.4,2.2,1,2.8,1.8s1,1.9,1,3c0,0.9-0.2,1.8-0.6,2.7s-1,1.5-1.7,2.1c-0.7,0.5-1.6,0.8-2.7,1
					c-0.7,0.1-2.3,0.1-4.9,0.1h-6.8V2.4z M38.5,5.7v4.6h2.7c1.6,0,2.6,0,2.9-0.1c0.7-0.1,1.2-0.3,1.6-0.7s0.6-0.9,0.6-1.6
					c0-0.6-0.2-1.1-0.5-1.5s-0.9-0.6-1.5-0.7c-0.4,0-1.6-0.1-3.5-0.1H38.5z M38.5,13.7V19h3.7c1.5,0,2.4,0,2.8-0.1
					c0.6-0.1,1.1-0.4,1.5-0.8c0.4-0.4,0.6-1,0.6-1.7c0-0.6-0.1-1.1-0.4-1.5c-0.3-0.4-0.7-0.7-1.3-0.9c-0.6-0.2-1.7-0.3-3.6-0.3H38.5
					z"/>
				<path class="st1" d="M55.7,2.4h4v10.9c0,1.7,0,2.8,0.2,3.4c0.2,0.8,0.6,1.5,1.2,2c0.7,0.5,1.5,0.7,2.7,0.7c1.1,0,2-0.2,2.6-0.7
					c0.6-0.5,0.9-1,1.1-1.7c0.1-0.7,0.2-1.8,0.2-3.4V2.4h4v10.5c0,2.4-0.1,4.1-0.3,5.1s-0.6,1.8-1.2,2.5s-1.4,1.2-2.4,1.6
					s-2.3,0.6-3.9,0.6c-1.9,0-3.4-0.2-4.4-0.7c-1-0.4-1.8-1-2.3-1.7s-1-1.4-1.1-2.2c-0.3-1.1-0.4-2.8-0.4-5.1V2.4z"/>
				<path class="st1" d="M77.1,22.4v-20h4v8.9l8.2-8.9h5.4l-7.5,7.8l8,12.2H90L84.5,13l-3.3,3.4v6.1H77.1z"/>
			</g>
			<g class="st0">
				<path class="st2" d="M98.4,22.4v-20h14.9v3.4h-10.8v4.4h10.1v3.4h-10.1V19h11.2v3.4H98.4z"/>
				<path class="st2" d="M118.2,22.4v-20h14.9v3.4h-10.8v4.4h10.1v3.4h-10.1V19h11.2v3.4H118.2z"/>
			</g>
		</g>
	</g>
	<g>
		<path class="st2" d="M28,28L0,0h28V28z"/>
	</g>
</g>
</svg>
